# Blender v2.78 (sub 0) OBJ File: 'centered_Rdoor.obj'
# www.blender.org
mtllib centered_Rdoor.mtl
o nodebox1
v 0.501415 -0.483015 -0.043036
v 0.501415 1.516985 -0.043036
v 0.501415 1.516985 0.081964
v 0.501415 -0.483015 0.081964
v -0.498585 -0.483015 -0.043036
v -0.498585 -0.483015 0.081964
v -0.498585 1.516985 0.081964
v -0.498585 1.516985 -0.043036
vt -0.0015 -0.0035
vt -0.0018 1.0015
vt 1.0050 1.0024
vt 1.0043 -0.0031
vt -0.0016 -0.0017
vt -0.0030 1.0017
vt 0.1314 1.0008
vt 0.1255 -0.0020
vt -0.0074 0.0010
vt 0.1364 -0.0012
vt 0.1517 0.9980
vt -0.0002 1.0005
vt -0.0072 -0.0039
vt 1.0016 -0.0032
vt 0.9986 1.0015
vt -0.0076 1.0018
vt 1.0000 0.0000
vt 1.0000 0.0986
vt -0.0003 0.0989
vt 0.0000 0.0000
vt 0.0054 0.9487
vt 0.0050 0.9967
vt 0.9996 0.9977
vt 1.0000 0.9507
vn 0.5774 -0.5774 0.5774
vn 0.5774 0.5774 0.5774
vn -0.5774 0.5774 0.5774
vn -0.5774 -0.5774 0.5774
vn 1.0000 0.0000 0.0000
vn -1.0000 0.0000 0.0000
vn 0.0000 0.0000 -1.0000
vn 0.0000 -1.0000 0.0000
vn 0.0000 1.0000 0.0000
usemtl none
s 1
f 4/1/1 3/2/2 7/3/3 6/4/4
usemtl none_NONE
f 1/5/5 2/6/5 3/7/2 4/8/1
f 5/9/6 6/10/4 7/11/3 8/12/6
f 1/13/7 5/14/7 8/15/7 2/16/7
f 1/17/8 4/18/1 6/19/4 5/20/8
f 2/21/9 8/22/9 7/23/3 3/24/2
