# Blender v2.78 (sub 4) OBJ File: 'chest_open.obj.blend'
# www.blender.org
o Chest_Cube.001
v -0.500000 1.187708 0.800000
v -0.500000 1.187708 0.500000
v -0.500000 0.187708 0.800000
v -0.500000 0.187708 0.500000
v 0.500000 1.187708 0.800000
v 0.500000 1.187708 0.500000
v 0.500000 0.187708 0.800000
v 0.500000 0.187708 0.500000
v -0.450000 1.137708 0.500000
v -0.450000 0.237708 0.500000
v 0.450000 0.237708 0.500000
v 0.450000 1.137708 0.500000
v -0.450000 1.137708 0.750000
v -0.450000 0.237708 0.750000
v 0.450000 0.237708 0.750000
v 0.450000 1.137708 0.750000
v -0.500000 -0.500000 0.500000
v -0.500000 0.187708 0.500000
v -0.500000 -0.500000 -0.500000
v -0.500000 0.187708 -0.500000
v 0.500000 -0.500000 0.500000
v 0.500000 0.187708 0.500000
v 0.500000 -0.500000 -0.500000
v 0.500000 0.187708 -0.500000
v -0.450000 0.187708 0.450000
v -0.450000 0.187708 -0.450000
v 0.450000 0.187708 -0.450000
v 0.450000 0.187708 0.450000
v -0.450000 -0.450000 0.450000
v -0.450000 -0.450000 -0.450000
v 0.450000 -0.450000 -0.450000
v 0.450000 -0.450000 0.450000
vt 0.000000 0.000000
vt 1.000000 0.000000
vt 1.000000 1.000000
vt 0.000000 1.000000
vt 0.999900 0.999900
vt 0.000100 0.999900
vt 0.050089 0.949910
vt 0.949910 0.949911
vt 0.999899 0.000100
vt 0.949910 0.050090
vt 0.000100 0.000100
vt 0.050090 0.050089
vt 0.050000 0.050000
vt 0.950000 0.050000
vt 0.950000 0.950000
vt 0.050000 0.950000
vt 0.000000 0.000000
vt 1.000000 0.000000
vt 1.000000 1.000000
vt 0.000000 1.000000
vt 0.999900 0.999900
vt 0.000100 0.999900
vt 0.050090 0.949910
vt 0.949910 0.949911
vt 0.999900 0.000100
vt 0.949910 0.050090
vt 0.000100 0.000100
vt 0.050090 0.050090
vt 0.050000 0.050000
vt 0.950000 0.050000
vt 0.950000 0.950000
vt 0.050000 0.950000
vt 0.000138 0.999862
vt 0.000138 0.687626
vt 0.999585 0.687626
vt 0.999585 0.999862
vt 0.000138 0.999862
vt 0.000138 0.687626
vt 0.999585 0.687626
vt 0.999585 0.999862
vt -0.000000 1.000000
vt 0.000000 0.686206
vt 1.000000 0.686207
vt 0.050110 0.685008
vt 0.949615 0.685008
vt 0.949615 0.949876
vt 0.050110 0.949876
vt 0.050000 0.685102
vt 0.949903 0.685102
vt 0.949903 0.950000
vt 0.050000 0.949903
vt 0.050110 0.685008
vt 0.949614 0.685008
vt 0.949614 0.949876
vt 0.050110 0.949876
vt 0.050496 0.687390
vt 0.950000 0.687390
vt 0.950000 0.950000
vt 0.050496 0.950000
vt 0.999585 0.000138
vt 0.999585 0.687349
vt 0.000139 0.687349
vt 0.000138 0.000139
vt 1.000000 0.686360
vt 0.000000 0.686360
vt 0.000000 0.000000
vt 0.999585 0.000138
vt 0.999585 0.687349
vt 0.000138 0.687349
vt 0.000138 0.000138
vt 0.949614 0.685008
vt 0.050110 0.685008
vt 0.050110 0.050124
vt 0.949614 0.050124
vt 0.950000 0.685102
vt 0.050000 0.685102
vt 0.050000 0.050000
vt 0.949504 0.687390
vt 0.050000 0.687390
vt 0.050000 0.050000
vt 0.949504 0.050000
vt 0.949614 0.685008
vt 0.050110 0.685008
vt 0.050110 0.050124
vt 0.949614 0.050124
vt 0.000138 0.999862
vt 0.000138 0.689214
vt 0.999585 0.689214
vt 0.999585 0.999862
vt 0.999585 0.000138
vt 0.999585 0.688937
vt 0.000138 0.688937
vt 0.000138 0.000139
vn 0.0000 -0.0000 1.0000
vn 0.0000 0.0000 -1.0000
vn 0.0000 -1.0000 0.0000
vn 0.0000 1.0000 -0.0000
vn -1.0000 0.0000 0.0000
vn 1.0000 0.0000 0.0000
g Chest_Cube.001_Top
s off
f 3/1/1 7/2/1 5/3/1 1/4/1
f 8/5/2 4/6/2 10/7/2 11/8/2
f 6/9/2 8/5/2 11/8/2 12/10/2
f 4/6/2 2/11/2 9/12/2 10/7/2
f 2/11/2 6/9/2 12/10/2 9/12/2
f 15/13/2 14/14/2 13/15/2 16/16/2
f 19/17/3 23/18/3 21/19/3 17/20/3
f 24/21/4 20/22/4 26/23/4 27/24/4
f 22/25/4 24/21/4 27/24/4 28/26/4
f 20/22/4 18/27/4 25/28/4 26/23/4
f 18/27/4 22/25/4 28/26/4 25/28/4
f 31/29/4 30/30/4 29/31/4 32/32/4
g Chest_Cube.001_Side
f 1/33/5 2/34/5 4/35/5 3/36/5
f 3/37/3 4/38/3 8/39/3 7/40/3
f 7/41/6 8/42/6 6/43/6 5/3/6
f 12/44/5 11/45/5 15/46/5 16/47/5
f 10/48/6 9/49/6 13/50/6 14/51/6
f 9/52/3 12/53/3 16/54/3 13/55/3
f 11/56/4 10/57/4 14/58/4 15/59/4
f 17/60/5 18/61/5 20/62/5 19/63/5
f 23/18/6 24/64/6 22/65/6 21/66/6
f 21/67/1 22/68/1 18/69/1 17/70/1
f 28/71/5 27/72/5 31/73/5 32/74/5
f 26/75/6 25/76/6 29/77/6 30/30/6
f 25/78/2 28/79/2 32/80/2 29/81/2
f 27/82/1 26/83/1 30/84/1 31/85/1
g Chest_Cube.001_Front
f 5/86/4 6/87/4 2/88/4 1/89/4
f 19/90/2 20/91/2 24/92/2 23/93/2
